<?xml version="1.0" encoding="UTF-8" standalone="no"?>
<svg
   version="1.1"
   xml:space="preserve"
   width="130"
   height="130"
   id="svg9"
   sodipodi:docname="fogges_logo_bg.svg"
   inkscape:export-filename="/mnt/DataZMM/Code/fogges/static/img/fogges_logo.png"
   inkscape:export-xdpi="96"
   inkscape:export-ydpi="96"
   inkscape:version="1.1 (c4e8f9ed74, 2021-05-24)"
   xmlns:inkscape="http://www.inkscape.org/namespaces/inkscape"
   xmlns:sodipodi="http://sodipodi.sourceforge.net/DTD/sodipodi-0.dtd"
   xmlns="http://www.w3.org/2000/svg"
   xmlns:svg="http://www.w3.org/2000/svg"><defs
     id="defs13"><filter
       inkscape:collect="always"
       style="color-interpolation-filters:sRGB"
       id="filter3882"
       x="-0.069350967"
       y="-0.081650944"
       width="1.1387019"
       height="1.1633019"><feGaussianBlur
         inkscape:collect="always"
         stdDeviation="3.5204748"
         id="feGaussianBlur3884" /></filter></defs><sodipodi:namedview
     id="namedview11"
     pagecolor="#ffffff"
     bordercolor="#666666"
     borderopacity="1.0"
     inkscape:pageshadow="2"
     inkscape:pageopacity="0"
     inkscape:pagecheckerboard="true"
     showgrid="false"
     inkscape:zoom="7.2407734"
     inkscape:cx="35.079126"
     inkscape:cy="52.549635"
     inkscape:window-width="2500"
     inkscape:window-height="1411"
     inkscape:window-x="60"
     inkscape:window-y="240"
     inkscape:window-maximized="1"
     inkscape:current-layer="layer4"
     width="130px" /><rect
     id="backgroundrect"
     width="100%"
     height="100%"
     x="0"
     y="0"
     fill="none"
     stroke="none" /><g
     inkscape:groupmode="layer"
     id="layer4"
     inkscape:label="Element"
     style="display:inline"><g
       class="currentLayer"
       id="g2760"
       transform="translate(2.7494558,11.108777)"
       style="filter:url(#filter3882);fill:#bc13fe;fill-opacity:1"><title
         id="title2754">Layer 1</title><g
         id="g2758"
         class="selected"
         fill="#ffffff"
         fill-opacity="1"
         style="fill:#bc13fe;fill-opacity:1"><path
           d="m 47.718541,96.805271 c 1.814345,0 3.291599,1.635885 3.291599,3.648519 0,2.01263 -1.46734,3.64852 -3.291599,3.64852 h -9.270015 c -1.814345,0 -3.291599,-1.63589 -3.291599,-3.64852 0,-2.012634 1.46734,-3.648519 3.291599,-3.648519 z M 15.228874,68.251643 c 1.546655,1.288879 1.744944,3.589033 0.456065,5.135688 -1.288879,1.546654 -3.589032,1.744944 -5.135687,0.456064 C 8.8836237,72.455372 7.4261989,70.878974 6.1868921,69.163773 2.8754644,64.59321 1.0908627,59.021286 1.0512048,53.469192 1.011547,47.857611 2.756491,42.275773 6.5239836,37.754782 c 1.2194778,-1.467339 2.6570737,-2.815705 4.3028734,-4.005439 1.913489,-1.388024 4.104584,-2.55793 6.583197,-3.519632 1.705286,-0.664268 3.529546,-1.219478 5.45295,-1.665628 2.18118,-8.665233 6.831059,-15.337661 12.809475,-19.9677108 5.591752,-4.3326165 12.323667,-6.8608023 19.25387,-7.5250707 6.90046,-0.66426845 13.999209,0.5056372 20.374204,3.5692035 6.959946,3.3411711 13.027592,8.90318 16.963631,16.725684 1.586312,-0.247861 3.172625,-0.376749 4.749023,-0.35692 6.662513,0.04957 13.087083,2.429041 18.143453,7.881991 1.06085,1.140162 2.0622,2.429041 2.99416,3.866637 3.17263,4.877912 4.7986,11.391708 4.7292,17.766702 -0.0694,6.256021 -1.75486,12.482298 -5.20509,17.07269 -1.20956,1.606142 -3.48989,1.933319 -5.09603,0.723755 -1.60614,-1.209563 -1.93332,-3.489887 -0.72375,-5.096029 2.47861,-3.301513 3.69809,-7.971221 3.74766,-12.759903 0.0595,-5.026628 -1.16991,-10.073085 -3.55929,-13.741433 -0.6841,-1.060847 -1.4376,-2.012634 -2.23075,-2.865277 -3.57912,-3.856723 -8.11994,-5.54218 -12.839221,-5.571924 -3.430401,-0.01983 -6.959946,0.803071 -10.320946,2.290239 -0.743584,0.366835 -1.487169,0.763413 -2.230753,1.199649 -2.230752,1.308708 -4.431761,2.904935 -6.682342,4.739109 l -4.798596,-5.492607 c 1.655714,-1.536741 3.45023,-2.934679 5.353806,-4.173986 1.516911,-0.991445 3.103224,-1.863917 4.729194,-2.62733 0.654354,-0.327177 1.318623,-0.634525 1.982891,-0.922044 C 81.844092,17.697841 77.293358,13.682487 72.137842,11.203874 66.982325,8.7351746 61.212113,7.783387 55.590618,8.328682 50.00878,8.8640625 44.585573,10.896526 40.10424,14.376499 34.91898,18.401767 30.982942,24.400012 29.466031,32.361319 l -0.475894,2.488528 -2.478614,0.436236 c -2.429041,0.426322 -4.600306,1.011274 -6.503882,1.754858 -1.844088,0.713841 -3.489888,1.596228 -4.927483,2.637245 -1.150077,0.832814 -2.141523,1.764773 -2.984251,2.776047 -2.6075016,3.123053 -3.817065,7.039263 -3.7873217,11.005045 0.029743,4.025268 1.3384513,8.090194 3.7575777,11.431365 0.922045,1.229393 1.972977,2.369555 3.162711,3.361 z m 17.816275,4.055012 c -1.477254,0 -2.666989,-1.635885 -2.666989,-3.648519 0,-2.012634 1.189735,-3.648519 2.666989,-3.648519 h 65.990607 c 1.477254,0 2.666984,1.635885 2.666984,3.648519 0,2.012634 -1.18973,3.648519 -2.666984,3.648519 z M 21.256863,87.683974 c -1.814346,0 -3.291599,-1.635885 -3.291599,-3.64852 0,-2.012634 1.467339,-3.648519 3.291599,-3.648519 h 52.070713 c 1.814345,0 3.291599,1.635885 3.291599,3.648519 0,2.012635 -1.467339,3.64852 -3.291599,3.64852 z m 68.429563,0 c -1.814346,0 -3.291599,-1.635885 -3.291599,-3.64852 0,-2.012634 1.467339,-3.648519 3.291599,-3.648519 h 11.718884 c 1.81435,0 3.2916,1.635885 3.2916,3.648519 0,2.012635 -1.46734,3.64852 -3.2916,3.64852 z m 19.700024,9.408817 c 1.80443,0.0099 3.27177,1.645799 3.26185,3.648519 -0.01,2.01263 -1.47725,3.62869 -3.2916,3.62869 l -46.568189,-0.26769 c -1.80443,-0.01 -3.27177,-1.6458 -3.261855,-3.64852 0.0099,-2.012634 1.477254,-3.62869 3.291599,-3.62869 z"
           id="path2756"
           fill="#ffffff"
           fill-opacity="1"
           style="fill:#bc13fe;fill-opacity:1" /></g></g><g
       class="currentLayer"
       id="g7"
       transform="translate(2.7494558,11.108777)"><title
         id="title3">Layer 1</title><g
         id="svg_1"
         class="selected"
         fill="#ffffff"
         fill-opacity="1"><path
           d="m 47.718541,96.805271 c 1.814345,0 3.291599,1.635885 3.291599,3.648519 0,2.01263 -1.46734,3.64852 -3.291599,3.64852 h -9.270015 c -1.814345,0 -3.291599,-1.63589 -3.291599,-3.64852 0,-2.012634 1.46734,-3.648519 3.291599,-3.648519 z M 15.228874,68.251643 c 1.546655,1.288879 1.744944,3.589033 0.456065,5.135688 -1.288879,1.546654 -3.589032,1.744944 -5.135687,0.456064 C 8.8836237,72.455372 7.4261989,70.878974 6.1868921,69.163773 2.8754644,64.59321 1.0908627,59.021286 1.0512048,53.469192 1.011547,47.857611 2.756491,42.275773 6.5239836,37.754782 c 1.2194778,-1.467339 2.6570737,-2.815705 4.3028734,-4.005439 1.913489,-1.388024 4.104584,-2.55793 6.583197,-3.519632 1.705286,-0.664268 3.529546,-1.219478 5.45295,-1.665628 2.18118,-8.665233 6.831059,-15.337661 12.809475,-19.9677108 5.591752,-4.3326165 12.323667,-6.8608023 19.25387,-7.5250707 6.90046,-0.66426845 13.999209,0.5056372 20.374204,3.5692035 6.959946,3.3411711 13.027592,8.90318 16.963631,16.725684 1.586312,-0.247861 3.172625,-0.376749 4.749023,-0.35692 6.662513,0.04957 13.087083,2.429041 18.143453,7.881991 1.06085,1.140162 2.0622,2.429041 2.99416,3.866637 3.17263,4.877912 4.7986,11.391708 4.7292,17.766702 -0.0694,6.256021 -1.75486,12.482298 -5.20509,17.07269 -1.20956,1.606142 -3.48989,1.933319 -5.09603,0.723755 -1.60614,-1.209563 -1.93332,-3.489887 -0.72375,-5.096029 2.47861,-3.301513 3.69809,-7.971221 3.74766,-12.759903 0.0595,-5.026628 -1.16991,-10.073085 -3.55929,-13.741433 -0.6841,-1.060847 -1.4376,-2.012634 -2.23075,-2.865277 -3.57912,-3.856723 -8.11994,-5.54218 -12.839221,-5.571924 -3.430401,-0.01983 -6.959946,0.803071 -10.320946,2.290239 -0.743584,0.366835 -1.487169,0.763413 -2.230753,1.199649 -2.230752,1.308708 -4.431761,2.904935 -6.682342,4.739109 l -4.798596,-5.492607 c 1.655714,-1.536741 3.45023,-2.934679 5.353806,-4.173986 1.516911,-0.991445 3.103224,-1.863917 4.729194,-2.62733 0.654354,-0.327177 1.318623,-0.634525 1.982891,-0.922044 C 81.844092,17.697841 77.293358,13.682487 72.137842,11.203874 66.982325,8.7351746 61.212113,7.783387 55.590618,8.328682 50.00878,8.8640625 44.585573,10.896526 40.10424,14.376499 34.91898,18.401767 30.982942,24.400012 29.466031,32.361319 l -0.475894,2.488528 -2.478614,0.436236 c -2.429041,0.426322 -4.600306,1.011274 -6.503882,1.754858 -1.844088,0.713841 -3.489888,1.596228 -4.927483,2.637245 -1.150077,0.832814 -2.141523,1.764773 -2.984251,2.776047 -2.6075016,3.123053 -3.817065,7.039263 -3.7873217,11.005045 0.029743,4.025268 1.3384513,8.090194 3.7575777,11.431365 0.922045,1.229393 1.972977,2.369555 3.162711,3.361 z m 17.816275,4.055012 c -1.477254,0 -2.666989,-1.635885 -2.666989,-3.648519 0,-2.012634 1.189735,-3.648519 2.666989,-3.648519 h 65.990607 c 1.477254,0 2.666984,1.635885 2.666984,3.648519 0,2.012634 -1.18973,3.648519 -2.666984,3.648519 z M 21.256863,87.683974 c -1.814346,0 -3.291599,-1.635885 -3.291599,-3.64852 0,-2.012634 1.467339,-3.648519 3.291599,-3.648519 h 52.070713 c 1.814345,0 3.291599,1.635885 3.291599,3.648519 0,2.012635 -1.467339,3.64852 -3.291599,3.64852 z m 68.429563,0 c -1.814346,0 -3.291599,-1.635885 -3.291599,-3.64852 0,-2.012634 1.467339,-3.648519 3.291599,-3.648519 h 11.718884 c 1.81435,0 3.2916,1.635885 3.2916,3.648519 0,2.012635 -1.46734,3.64852 -3.2916,3.64852 z m 19.700024,9.408817 c 1.80443,0.0099 3.27177,1.645799 3.26185,3.648519 -0.01,2.01263 -1.47725,3.62869 -3.2916,3.62869 l -46.568189,-0.26769 c -1.80443,-0.01 -3.27177,-1.6458 -3.261855,-3.64852 0.0099,-2.012634 1.477254,-3.62869 3.291599,-3.62869 z"
           id="svg_2"
           fill="#ffffff"
           fill-opacity="1"
           style="fill:#fffeff;fill-opacity:1" /></g></g></g></svg>
