<svg xmlns="http://www.w3.org/2000/svg" xmlns:xlink="http://www.w3.org/1999/xlink" version="1.1" style="enable-background:new 0 0 122.88 104.36" xml:space="preserve" width="122.87999725341797" height="104.36000061035156"><rect id="backgroundrect" width="100%" height="100%" x="0" y="0" fill="none" stroke="none"/><g class="currentLayer" style=""><title>Layer 1</title><g id="svg_1" class="selected" fill="#ffffff" fill-opacity="1"><path d="M47.71854086141946,96.80527145231932 c1.8143451225757599,0 3.2915988016128543,1.6358849465847016 3.2915988016128543,3.648519153594971 c0,2.012634207010269 -1.4673392248153687,3.648519153594971 -3.2915988016128543,3.648519153594971 h-9.270014697313309 c-1.8143451225757599,0 -3.2915988016128543,-1.6358849465847016 -3.2915988016128543,-3.648519153594971 c0,-2.012634207010269 1.4673392248153687,-3.648519153594971 3.2915988016128543,-3.648519153594971 H47.71854086141946 L47.71854086141946,96.80527145231932 zM15.228874376825116,68.25164329374998 c1.5466548585891724,1.2888790488243103 1.744943943023682,3.589032428264618 0.45606489419937135,5.13568728685379 c-1.2888790488243103,1.5466548585891724 -3.589032428264618,1.744943943023682 -5.13568728685379,0.45606489419937135 c-1.665628309249878,-1.3880235910415648 -3.123053079843521,-2.964421812295914 -4.362359857559205,-4.6796223926544185 C2.8754644165551873,64.59320968593329 1.0908626566446038,59.02128641332358 1.0512048397577018,53.46919204915732 c-0.03965781688690186,-5.611581089496613 1.70528612613678,-11.193418816328048 5.472778730392456,-15.71440994143486 c1.2194778692722321,-1.4673392248153687 2.6570737314224244,-2.815704998970032 4.302873132228851,-4.005439505577088 c1.9134896647930146,-1.3880235910415648 4.104584047794342,-2.55792918920517 6.583197603225709,-3.5196312487125394 c1.70528612613678,-0.6642684328556062 3.529545702934265,-1.2194778692722321 5.452949821949005,-1.665628309249878 c2.1811799287796023,-8.665232989788056 6.831058958768845,-15.337660681009293 12.809474854469299,-19.967710802555086 c5.591752181053162,-4.332616494894028 12.32366659760475,-6.860802321434021 19.253870098590852,-7.525070754289627 c6.9004601383209225,-0.6642684328556062 13.999209361076355,0.5056371653079986 20.374203425645828,3.569203519821167 c6.959946863651275,3.3411710727214814 13.02759284734726,8.903179891109467 16.963631173372267,16.72568427205086 c1.5863126754760744,-0.2478613555431366 3.1726253509521487,-0.37674926042556767 4.7490235722064975,-0.35692035198211675 c6.662513236999511,0.04957227110862733 13.087079572677611,2.429041284322739 18.143451225757598,7.881991106271744 c1.0608466017246247,1.1401622354984282 2.0622064781188967,2.429041284322739 2.9941651749610902,3.866637146472931 c3.1726253509521487,4.8779114770889285 4.798595843315124,11.391707900762558 4.729194663763046,17.766701965332032 c-0.06940117955207825,6.256020613908769 -1.754858397245407,12.48229786515236 -5.2050884664058685,17.07269016981125 c-1.2095634150505066,1.6061415839195252 -3.4898878860473634,1.9333185732364657 -5.096029469966888,0.7237551581859589 c-1.6061415839195252,-1.2095634150505066 -1.9333185732364657,-3.4898878860473634 -0.7237551581859589,-5.096029469966888 c2.478613555431366,-3.3015132558345797 3.698091424703598,-7.971221194267272 3.747663695812226,-12.759902583360674 c0.0594867253303528,-5.02662829041481 -1.1699055981636046,-10.07308548927307 -3.5592890655994416,-13.741433551311493 c-0.6840973412990572,-1.0608466017246247 -1.4375958621501923,-2.012634207010269 -2.2307521998882294,-2.8652772700786593 c-3.5791179740428927,-3.8567226922512057 -8.119938007593154,-5.542179909944534 -12.839218217134475,-5.571923272609711 c-3.4304011607170106,-0.01982890844345093 -6.959946863651275,0.8030707919597626 -10.320946844816207,2.290238925218582 c-0.7435840666294099,0.36683480620384223 -1.4871681332588196,0.7634129750728608 -2.2307521998882294,1.199648960828781 c-2.2307521998882294,1.3087079572677613 -4.431761037111282,2.904935086965561 -6.682342145442963,4.739109117984772 l-4.798595843315124,-5.492607638835907 c1.6557138550281527,-1.5367404043674469 3.4502300691604613,-2.9346784496307374 5.353805279731751,-4.17398522734642 c1.516911495923996,-0.9914454221725464 3.10322417140007,-1.8639173936843874 4.729194663763046,-2.6273303687572485 c0.6543539786338808,-0.3271769893169404 1.3186224114894867,-0.6345250701904298 1.9828908443450928,-0.9220442426204681 c-3.162710896730423,-5.601666635274888 -7.713445384502411,-9.617020595073699 -12.868961579799652,-12.095634150505065 c-5.155516195297241,-2.4686991012096406 -10.925728552341461,-3.4204867064952853 -16.5472240960598,-2.8751917243003846 c-5.581837726831436,0.535380527973175 -11.005044186115265,2.567843643426895 -15.486377494335176,6.047817075252532 c-5.185259557962418,4.025268414020538 -9.121297883987426,10.023513218164444 -10.638209379911423,17.984819958209993 l-0.47589380264282233,2.4885280096530913 l-2.478613555431366,0.4362359857559205 c-2.429041284322739,0.426321531534195 -4.600306758880616,1.0112743306159973 -6.503881969451905,1.754858397245407 c-1.8440884852409363,0.7138407039642335 -3.4898878860473634,1.5962271296977997 -4.927483748197555,2.6372448229789733 c-1.150076689720154,0.832814154624939 -2.1415221118927,1.7647728514671326 -2.9842507207393645,2.7760471820831296 c-2.607501460313797,3.123053079843521 -3.8170648753643035,7.039262497425079 -3.7873215126991275,11.005044186115265 c0.0297433626651764,4.025268414020538 1.3384513199329378,8.090194644927978 3.7575781500339507,11.43136571764946 C12.98820772271516,66.12003563607901 14.03913987021806,67.26019787157743 15.228874376825116,68.25164329374998 L15.228874376825116,68.25164329374998 zM33.04514861326578,72.3066550704357 c-1.477253679037094,0 -2.66698818564415,-1.6358849465847016 -2.66698818564415,-3.648519153594971 c0,-2.012634207010269 1.1897345066070557,-3.648519153594971 2.66698818564415,-3.648519153594971 h65.9906072998047 c1.477253679037094,0 2.66698818564415,1.6358849465847016 2.66698818564415,3.648519153594971 c0,2.012634207010269 -1.1897345066070557,3.648519153594971 -2.66698818564415,3.648519153594971 H33.04514861326578 L33.04514861326578,72.3066550704357 zM21.256862543634195,87.6839735683319 c-1.8143451225757599,0 -3.2915988016128543,-1.6358849465847016 -3.2915988016128543,-3.648519153594971 s1.4673392248153687,-3.648519153594971 3.2915988016128543,-3.648519153594971 H73.32757611613634 c1.8143451225757599,0 3.2915988016128543,1.6358849465847016 3.2915988016128543,3.648519153594971 s-1.4673392248153687,3.648519153594971 -3.2915988016128543,3.648519153594971 H21.256862543634195 L21.256862543634195,87.6839735683319 zM89.68642558198336,87.6839735683319 c-1.8143451225757599,0 -3.2915988016128543,-1.6358849465847016 -3.2915988016128543,-3.648519153594971 s1.4673392248153687,-3.648519153594971 3.2915988016128543,-3.648519153594971 h11.718884890079499 c1.8143451225757599,0 3.2915988016128543,1.6358849465847016 3.2915988016128543,3.648519153594971 s-1.4673392248153687,3.648519153594971 -3.2915988016128543,3.648519153594971 H89.68642558198336 L89.68642558198336,87.6839735683319 zM109.38644612055184,97.09279062474936 c1.8044306683540345,0.009914454221725466 3.271769893169403,1.6457994008064272 3.2618554389476775,3.648519153594971 c-0.009914454221725466,2.012634207010269 -1.477253679037094,3.6286902451515197 -3.2915988016128543,3.6286902451515197 l-46.5681914794445,-0.2676902639865875 c-1.8044306683540345,-0.009914454221725466 -3.271769893169403,-1.6457994008064272 -3.2618554389476775,-3.648519153594971 c0.009914454221725466,-2.012634207010269 1.477253679037094,-3.6286902451515197 3.2915988016128543,-3.6286902451515197 L109.38644612055184,97.09279062474936 L109.38644612055184,97.09279062474936 z" id="svg_2" fill="#ffffff" fill-opacity="1"/></g></g></svg>